<?xml version="1.0" standalone="no"?>
<!DOCTYPE svg PUBLIC "-//W3C//DTD SVG 20010904//EN"
 "http://www.w3.org/TR/2001/REC-SVG-20010904/DTD/svg10.dtd">
<svg version="1.0" xmlns="http://www.w3.org/2000/svg"
 width="16.000000pt" height="16.000000pt" viewBox="0 0 16.000000 16.000000"
 preserveAspectRatio="xMidYMid meet">
<metadata>
Created by potrace 1.11, written by Peter Selinger 2001-2013
</metadata>
<g transform="translate(0.000000,16.000000) scale(0.004000,-0.004000)"
fill="#000000" stroke="none">
<path d="M311 3874 c-131 -35 -214 -144 -238 -314 -13 -86 -7 -361 7 -385 3
-5 7 -24 9 -42 7 -87 18 -86 23 2 11 156 65 258 165 306 73 35 167 33 319 -10
l42 -11 -27 -53 c-24 -46 -50 -117 -57 -156 -1 -7 -7 -34 -13 -60 -15 -63 -21
-119 -26 -235 -5 -95 0 -121 11 -60 25 145 122 287 231 336 39 18 67 22 153
22 108 1 133 -7 200 -61 8 -6 60 -45 115 -87 55 -41 109 -83 120 -93 11 -10
36 -31 55 -47 101 -83 100 -82 89 -118 -6 -18 -17 -46 -24 -63 -7 -16 -20 -52
-30 -80 -9 -27 -21 -59 -25 -70 -4 -11 -15 -38 -23 -60 -17 -45 -98 -260 -129
-345 -11 -30 -25 -65 -31 -77 -7 -16 -7 -30 0 -45 10 -23 152 -232 172 -255 6
-7 11 -15 11 -18 0 -4 6 -12 13 -19 6 -8 50 -65 96 -129 l84 -116 46 25 c62
33 129 72 171 98 97 62 120 76 124 76 2 0 96 54 207 120 l204 119 40 -42 c22
-23 39 -44 38 -46 -2 -2 4 -9 12 -15 13 -9 0 -20 -66 -59 -45 -26 -85 -47 -90
-47 -5 0 -9 -4 -9 -10 0 -5 -4 -10 -10 -10 -5 0 -53 -26 -107 -58 -54 -33
-165 -98 -248 -147 -82 -48 -165 -97 -182 -107 l-33 -20 42 -51 c24 -29 59
-70 78 -92 19 -23 56 -65 81 -95 26 -30 69 -78 95 -106 l49 -50 533 0 534 1
19 -25 c65 -85 89 -120 89 -129 0 -5 4 -11 8 -13 13 -5 275 -396 295 -440 10
-20 21 -39 26 -42 19 -12 -133 398 -216 583 -14 30 -25 62 -25 70 1 9 57 183
126 386 277 816 428 1266 425 1269 -2 2 -94 -50 -204 -115 -206 -122 -487
-287 -553 -326 -20 -12 -48 -29 -62 -37 -14 -8 -36 -21 -50 -28 -14 -7 -68
-39 -120 -70 -52 -32 -99 -58 -105 -58 -5 0 -21 19 -35 41 -52 85 -51 83 -32
93 18 9 373 217 539 316 32 19 67 39 78 45 11 6 99 58 195 115 96 57 186 110
200 117 14 8 54 32 89 53 l65 38 -35 6 c-32 5 -130 19 -211 31 -21 3 -55 7
-75 10 -55 8 -92 13 -148 20 -27 4 -57 8 -65 10 -8 2 -41 7 -73 10 -32 4 -68
8 -80 11 -12 2 -42 7 -67 10 -25 3 -52 7 -60 9 -8 2 -40 7 -70 10 -30 4 -95
13 -145 20 -49 8 -112 17 -140 20 -27 3 -61 8 -75 10 -27 5 -97 15 -145 20
-16 2 -30 4 -30 5 0 1 -13 3 -30 5 -41 5 -93 13 -135 20 -49 7 -97 14 -150 20
-25 3 -58 8 -75 11 -16 3 -41 7 -55 9 -14 2 -47 7 -73 9 -40 4 -59 14 -110 58
-34 29 -64 55 -67 58 -40 41 -261 200 -279 200 -6 0 -11 4 -11 8 0 7 -57 40
-80 47 -3 1 -35 16 -72 33 -69 33 -197 72 -234 72 -12 0 -51 20 -88 44 -77 52
-84 56 -207 119 -192 99 -348 132 -468 101z"/>
<path d="M771 2545 c12 -27 32 -74 45 -103 13 -29 24 -55 24 -57 0 -8 198
-408 238 -480 90 -164 107 -193 138 -243 19 -29 34 -54 34 -57 0 -16 264 -415
368 -555 75 -101 236 -306 251 -320 3 -3 38 -41 77 -85 182 -204 361 -362 524
-462 36 -22 68 -40 73 -41 4 -1 23 -8 43 -17 59 -24 146 -38 194 -31 134 21
201 149 200 381 0 104 -5 163 -13 172 -4 3 -7 -9 -7 -29 0 -95 -67 -208 -134
-227 -31 -8 -113 -7 -151 2 -219 55 -618 386 -946 787 -29 36 -56 67 -59 70
-3 3 -33 39 -65 80 -33 41 -62 77 -65 80 -3 3 -59 77 -123 165 -65 88 -123
167 -130 176 -7 8 -16 23 -22 32 -21 34 -195 293 -205 304 -5 6 -18 27 -28 45
-11 18 -40 66 -66 107 -26 41 -55 89 -64 107 -8 19 -19 34 -24 34 -4 0 -8 4
-8 9 0 10 -97 179 -112 196 -5 6 1 -12 13 -40z"/>
</g>
</svg>
